<svg id="Layer_1" data-name="Layer 1" xmlns="http://www.w3.org/2000/svg" viewBox="0 0 132 36"><defs><style>.cls-1{fill:#fff;}.cls-2{fill:#f7931e;}</style></defs><title>Artboard 1</title><path class="cls-1" d="M7.57,16.19l3-1.51a4.53,4.53,0,0,0-4.4-3.22c-3.48.07-5.19,2.36-5,4.73A3.57,3.57,0,0,0,3.3,19.48c.62.39,3.81,1.61,4.07,2.2s.43.79.33,1.22A1.83,1.83,0,0,1,5.87,24,3.86,3.86,0,0,1,3.33,22.8L.24,24a5.18,5.18,0,0,0,2.4,2.86,9.13,9.13,0,0,0,5.81.23,5.8,5.8,0,0,0,3.22-4c.07-1.35-.26-3.15-1.71-4s-4.83-2-5.16-2.63a1,1,0,0,1,1-1.51C6.71,15,7.57,16.19,7.57,16.19Z"/><path class="cls-1" d="M127.65,16.19l3-1.51a4.53,4.53,0,0,0-4.4-3.22c-3.48.07-5.19,2.36-5,4.73a3.57,3.57,0,0,0,2.14,3.28c.62.39,3.81,1.61,4.07,2.2s.43.79.33,1.22A1.83,1.83,0,0,1,125.95,24a3.86,3.86,0,0,1-2.54-1.22L120.32,24a5.18,5.18,0,0,0,2.4,2.86,9.13,9.13,0,0,0,5.81.23,5.8,5.8,0,0,0,3.22-4c.07-1.35-.26-3.15-1.71-4s-4.83-2-5.16-2.63a1,1,0,0,1,1-1.51C126.79,15,127.65,16.19,127.65,16.19Z"/><polygon class="cls-1" points="14.73 3.02 14.73 27.62 18.64 27.62 18.64 21.48 19.21 20.91 24.45 27.62 29.21 27.62 21.97 18.23 28.88 11.46 23.66 11.46 18.64 16.49 18.64 3.02 14.73 3.02"/><polygon class="cls-1" points="29.1 11.41 36.24 24.61 30.04 36 34.51 36 47.12 11.41 42.85 11.41 38.3 20.43 33.5 11.41 29.1 11.41"/><polygon class="cls-1" points="51.44 11.41 47.12 11.41 55.55 27.57 59.96 17.56 64.36 27.57 72.88 11.41 68.58 11.41 64.44 20.28 60 10.51 55.51 20.3 51.44 11.41"/><rect class="cls-1" x="75.02" y="11.41" width="3.9" height="16.16"/><path class="cls-1" d="M83.3,11.41V27.57h3.9V19.16a7.55,7.55,0,0,1,.66-2.91A2.83,2.83,0,0,1,90.53,15,2.47,2.47,0,0,1,93,16.88a7.86,7.86,0,0,1,.28,2.34v8.34h3.87v-10s.22-3.07-1.53-4.51a5.9,5.9,0,0,0-5-1.53A6.24,6.24,0,0,0,87.2,13V11.41Z"/><path class="cls-1" d="M113,11.41v1.8a6.92,6.92,0,0,0-2.72-1.45,8.72,8.72,0,0,0-5.65.55c-1.75.94-3.83,3.13-3.83,7.2s1.62,5.65,3.53,7.12,5.72.79,6.55.35A16.15,16.15,0,0,0,113,25.45v2.85a5.08,5.08,0,0,1-1.07,3.18,4.11,4.11,0,0,1-3.33,1.14,5.05,5.05,0,0,1-2.41-1,5.07,5.07,0,0,1-1-2.26h-4a8.12,8.12,0,0,0,2.08,4.58c1.8,1.66,3.07,2.08,6.18,2.08a6.9,6.9,0,0,0,5.58-2.32,9.08,9.08,0,0,0,1.86-5.47V11.41ZM109.09,24a4.37,4.37,0,0,1-4.4-4.58,4.28,4.28,0,0,1,4.4-4.49,4.43,4.43,0,0,1,4.4,4.49A4.42,4.42,0,0,1,109.09,24Z"/><circle class="cls-2" cx="76.89" cy="4.02" r="4.02"/></svg>